<svg width="20" height="13" viewBox="0 0 20 13" fill="none" xmlns="http://www.w3.org/2000/svg">
<path fill-rule="evenodd" clip-rule="evenodd" d="M19.2 1.2251C19.2 0.603777 18.7224 0.100098 18.1333 0.100098H17.0667C16.4776 0.100098 16 0.603777 16 1.2251V10.9751C16 11.5964 16.4776 12.1001 17.0667 12.1001H18.1333C18.7224 12.1001 19.2 11.5964 19.2 10.9751V1.2251ZM11.7667 2.5001H12.8333C13.4224 2.5001 13.9 3.01587 13.9 3.6521V10.9481C13.9 11.5843 13.4224 12.1001 12.8333 12.1001H11.7667C11.1776 12.1001 10.7 11.5843 10.7 10.9481V3.6521C10.7 3.01587 11.1776 2.5001 11.7667 2.5001ZM7.43333 5.1001H6.36667C5.77756 5.1001 5.3 5.62243 5.3 6.26676V10.9334C5.3 11.5778 5.77756 12.1001 6.36667 12.1001H7.43333C8.02244 12.1001 8.5 11.5778 8.5 10.9334V6.26676C8.5 5.62243 8.02244 5.1001 7.43333 5.1001ZM2.13333 7.5001H1.06667C0.477563 7.5001 0 8.01497 0 8.6501V10.9501C0 11.5852 0.477563 12.1001 1.06667 12.1001H2.13333C2.72244 12.1001 3.2 11.5852 3.2 10.9501V8.6501C3.2 8.01497 2.72244 7.5001 2.13333 7.5001Z"/>
</svg>
