<svg width="8" height="14" viewBox="0 0 8 14" fill="none" xmlns="http://www.w3.org/2000/svg">
<path d="M7.96826 6.71191C7.96826 6.80469 7.94873 6.89258 7.90967 6.97559C7.87549 7.05371 7.82422 7.12695 7.75586 7.19531L1.95508 12.8716C1.82324 13.0034 1.66211 13.0693 1.47168 13.0693C1.34961 13.0693 1.2373 13.04 1.13477 12.9814C1.03223 12.9229 0.95166 12.8423 0.893066 12.7397C0.834473 12.6421 0.805176 12.5298 0.805176 12.4028C0.805176 12.2222 0.868652 12.0635 0.995605 11.9268L6.32764 6.71191L0.995605 1.49707C0.868652 1.36035 0.805176 1.20166 0.805176 1.021C0.805176 0.894043 0.834473 0.781738 0.893066 0.684082C0.95166 0.581543 1.03223 0.500977 1.13477 0.442383C1.2373 0.383789 1.34961 0.354492 1.47168 0.354492C1.66211 0.354492 1.82324 0.417969 1.95508 0.544922L7.75586 6.22852C7.82422 6.29688 7.87549 6.37256 7.90967 6.45557C7.94873 6.53369 7.96826 6.61914 7.96826 6.71191Z" fill="black"/>
</svg>
