<svg width="23" height="21" viewBox="0 0 23 21" fill="none" xmlns="http://www.w3.org/2000/svg">
<path d="M11.4062 20.4385C11.2988 20.4385 11.1699 20.4062 11.0195 20.3418C10.8763 20.2845 10.7474 20.2201 10.6328 20.1484C8.61328 18.8594 6.8623 17.5094 5.37988 16.0986C3.89746 14.6807 2.75163 13.2269 1.94238 11.7373C1.1403 10.2406 0.739258 8.72949 0.739258 7.2041C0.739258 6.25163 0.889648 5.38151 1.19043 4.59375C1.49837 3.79883 1.92448 3.11133 2.46875 2.53125C3.01302 1.95117 3.64681 1.50358 4.37012 1.18848C5.09342 0.873372 5.8776 0.71582 6.72266 0.71582C7.77539 0.71582 8.69922 0.984375 9.49414 1.52148C10.2891 2.05859 10.9264 2.76758 11.4062 3.64844C11.8932 2.76042 12.5342 2.05143 13.3291 1.52148C14.124 0.984375 15.0443 0.71582 16.0898 0.71582C16.9349 0.71582 17.7191 0.873372 18.4424 1.18848C19.1729 1.50358 19.8066 1.95117 20.3438 2.53125C20.888 3.11133 21.3105 3.79883 21.6113 4.59375C21.9193 5.38151 22.0732 6.25163 22.0732 7.2041C22.0732 8.72949 21.6686 10.2406 20.8594 11.7373C20.0573 13.2269 18.915 14.6807 17.4326 16.0986C15.9574 17.5094 14.21 18.8594 12.1904 20.1484C12.0758 20.2201 11.9434 20.2845 11.793 20.3418C11.6497 20.4062 11.5208 20.4385 11.4062 20.4385Z" />
</svg>
