<svg width="23" height="21" viewBox="0 0 23 21" fill="none" xmlns="http://www.w3.org/2000/svg">
<path d="M0.739258 7.2041C0.739258 6.25163 0.889648 5.38151 1.19043 4.59375C1.49837 3.79883 1.92806 3.11133 2.47949 2.53125C3.03092 1.95117 3.67546 1.50358 4.41309 1.18848C5.15788 0.873372 5.96354 0.71582 6.83008 0.71582C7.82552 0.71582 8.71712 0.934245 9.50488 1.37109C10.2926 1.80794 10.9264 2.38802 11.4062 3.11133C11.8932 2.38802 12.527 1.80794 13.3076 1.37109C14.0954 0.934245 14.987 0.71582 15.9824 0.71582C16.8561 0.71582 17.6618 0.873372 18.3994 1.18848C19.1442 1.50358 19.7887 1.95117 20.333 2.53125C20.8844 3.11133 21.3105 3.79883 21.6113 4.59375C21.9193 5.38151 22.0732 6.25163 22.0732 7.2041C22.0732 8.72949 21.6686 10.2406 20.8594 11.7373C20.0573 13.2269 18.915 14.6807 17.4326 16.0986C15.9574 17.5094 14.21 18.8594 12.1904 20.1484C12.0758 20.2201 11.9434 20.2845 11.793 20.3418C11.6497 20.4062 11.5208 20.4385 11.4062 20.4385C11.2988 20.4385 11.1699 20.4062 11.0195 20.3418C10.8763 20.2845 10.7474 20.2201 10.6328 20.1484C8.61328 18.8594 6.8623 17.5094 5.37988 16.0986C3.89746 14.6807 2.75163 13.2269 1.94238 11.7373C1.1403 10.2406 0.739258 8.72949 0.739258 7.2041ZM2.46875 7.2041C2.46875 8.19954 2.70866 9.20931 3.18848 10.2334C3.66829 11.2503 4.31999 12.2493 5.14355 13.2305C5.96712 14.2116 6.89811 15.1497 7.93652 16.0449C8.9821 16.9329 10.0671 17.7493 11.1914 18.4941C11.306 18.5801 11.3776 18.623 11.4062 18.623C11.4349 18.623 11.5101 18.5801 11.6318 18.4941C12.7562 17.7493 13.8376 16.9329 14.876 16.0449C15.9215 15.1497 16.8525 14.2116 17.6689 13.2305C18.4925 12.2493 19.1442 11.2503 19.624 10.2334C20.1038 9.20931 20.3438 8.19954 20.3438 7.2041C20.3438 6.25163 20.154 5.4209 19.7744 4.71191C19.402 3.99577 18.8864 3.44076 18.2275 3.04688C17.5758 2.64583 16.8346 2.44531 16.0039 2.44531C15.3307 2.44531 14.7507 2.56706 14.2637 2.81055C13.7839 3.04688 13.3685 3.34766 13.0176 3.71289C12.6738 4.07096 12.3802 4.42546 12.1367 4.77637C11.9792 4.98405 11.8503 5.12728 11.75 5.20605C11.6497 5.28483 11.5352 5.32422 11.4062 5.32422C11.2773 5.32422 11.1592 5.28841 11.0518 5.2168C10.9515 5.13802 10.8262 4.99121 10.6758 4.77637C10.4466 4.41829 10.1602 4.06022 9.81641 3.70215C9.47266 3.34408 9.05371 3.04688 8.55957 2.81055C8.06543 2.56706 7.48177 2.44531 6.80859 2.44531C5.97786 2.44531 5.23307 2.64583 4.57422 3.04688C3.92253 3.44076 3.4069 3.99577 3.02734 4.71191C2.65495 5.4209 2.46875 6.25163 2.46875 7.2041Z" />
</svg>
