<svg width="18" height="10" viewBox="0 0 18 10" fill="none" xmlns="http://www.w3.org/2000/svg">
<path d="M1.53076 9.70508C1.30387 9.70508 1.10742 9.6193 0.941406 9.44775C0.780924 9.2762 0.700684 9.07422 0.700684 8.8418C0.700684 8.61491 0.780924 8.41846 0.941406 8.25244C1.10189 8.08643 1.29834 8.00342 1.53076 8.00342H17.0449C17.2718 8.00342 17.4655 8.08643 17.626 8.25244C17.792 8.41846 17.875 8.61491 17.875 8.8418C17.875 9.07422 17.792 9.2762 17.626 9.44775C17.4655 9.6193 17.2718 9.70508 17.0449 9.70508H1.53076ZM1.53076 5.86182C1.30387 5.86182 1.10742 5.77881 0.941406 5.61279C0.780924 5.44124 0.700684 5.24202 0.700684 5.01514C0.700684 4.78271 0.780924 4.5835 0.941406 4.41748C1.10189 4.24593 1.29834 4.16016 1.53076 4.16016H17.0449C17.2718 4.16016 17.4655 4.24593 17.626 4.41748C17.792 4.5835 17.875 4.78271 17.875 5.01514C17.875 5.24202 17.792 5.44124 17.626 5.61279C17.4655 5.77881 17.2718 5.86182 17.0449 5.86182H1.53076ZM1.53076 2.03516C1.30387 2.03516 1.10742 1.95215 0.941406 1.78613C0.780924 1.61458 0.700684 1.41536 0.700684 1.18848C0.700684 0.956055 0.780924 0.756836 0.941406 0.59082C1.10189 0.424805 1.29834 0.341797 1.53076 0.341797H17.0449C17.2718 0.341797 17.4655 0.424805 17.626 0.59082C17.792 0.756836 17.875 0.956055 17.875 1.18848C17.875 1.41536 17.792 1.61458 17.626 1.78613C17.4655 1.95215 17.2718 2.03516 17.0449 2.03516H1.53076Z" fill="black"/>
</svg>
