<svg width="18" height="13" viewBox="0 0 18 13" fill="black" xmlns="http://www.w3.org/2000/svg">
<path fill-rule="evenodd" clip-rule="evenodd" d="M9.27126 2.6208C11.7584 2.62091 14.1504 3.52592 15.9529 5.14878C16.0886 5.27407 16.3056 5.27249 16.4393 5.14523L17.7368 3.90516C17.8044 3.84062 17.8422 3.75319 17.8416 3.66223C17.8411 3.57126 17.8022 3.48426 17.7338 3.42047C13.0027 -0.873231 5.53903 -0.873231 0.808015 3.42047C0.739483 3.48421 0.700599 3.57119 0.699967 3.66215C0.699335 3.75312 0.737007 3.84057 0.804648 3.90516L2.10251 5.14523C2.23611 5.27268 2.45323 5.27426 2.58888 5.14878C4.39162 3.52581 6.78391 2.6208 9.27126 2.6208ZM9.26948 6.76293C10.6268 6.76284 11.9357 7.26511 12.9418 8.17212C13.0779 8.30085 13.2922 8.29806 13.4249 8.16583L14.7122 6.87095C14.78 6.80303 14.8176 6.7109 14.8166 6.61515C14.8156 6.51941 14.7761 6.42805 14.707 6.36151C11.6431 3.5242 6.89841 3.5242 3.83458 6.36151C3.76537 6.42805 3.72588 6.51945 3.72497 6.61523C3.72407 6.711 3.76181 6.80313 3.82975 6.87095L5.11666 8.16583C5.24931 8.29806 5.46368 8.30085 5.59976 8.17212C6.60521 7.2657 7.91305 6.76348 9.26948 6.76293ZM11.7916 9.50474C11.7935 9.60814 11.7564 9.70783 11.6891 9.78027L9.51246 12.1895C9.44865 12.2603 9.36166 12.3002 9.27089 12.3002C9.18012 12.3002 9.09312 12.2603 9.02932 12.1895L6.85229 9.78027C6.78504 9.70778 6.74804 9.60806 6.75004 9.50466C6.75203 9.40126 6.79284 9.30334 6.86282 9.23403C8.25292 7.94447 10.2888 7.94447 11.6789 9.23403C11.7489 9.3034 11.7896 9.40134 11.7916 9.50474Z" />
</svg>
