<svg width="27" height="22" viewBox="0 0 27 22" fill="none" xmlns="http://www.w3.org/2000/svg">
<g filter="url(#filter0_d_488_57785)">
<path fill-rule="evenodd" clip-rule="evenodd" d="M13.7705 3.10404C16.2576 3.10414 18.6496 4.02623 20.4521 5.67971C20.5879 5.80736 20.8048 5.80575 20.9385 5.6761L22.236 4.41263C22.3037 4.34687 22.3414 4.25779 22.3409 4.16511C22.3403 4.07243 22.3015 3.98379 22.233 3.91879C17.502 -0.455922 10.0383 -0.455922 5.30727 3.91879C5.23874 3.98374 5.19986 4.07235 5.19923 4.16504C5.19859 4.25772 5.23627 4.34682 5.30391 4.41263L6.60177 5.6761C6.73537 5.80595 6.95249 5.80756 7.08814 5.67971C8.89088 4.02612 11.2832 3.10403 13.7705 3.10404ZM13.7672 7.32431C15.1245 7.32423 16.4334 7.83597 17.4395 8.7601C17.5756 8.89125 17.7899 8.88841 17.9226 8.75369L19.2099 7.43438C19.2777 7.36518 19.3153 7.2713 19.3143 7.17375C19.3133 7.0762 19.2738 6.98312 19.2047 6.91533C16.1408 4.02448 11.3961 4.02448 8.33227 6.91533C8.26306 6.98312 8.22357 7.07625 8.22266 7.17383C8.22176 7.27141 8.2595 7.36528 8.32744 7.43438L9.61435 8.75369C9.747 8.88841 9.96136 8.89125 10.0974 8.7601C11.1029 7.83658 12.4107 7.32488 13.7672 7.32431ZM16.2916 10.1179C16.2935 10.2232 16.2565 10.3248 16.1892 10.3986L14.0125 12.8533C13.9487 12.9255 13.8617 12.9661 13.7709 12.9661C13.6802 12.9661 13.5932 12.9255 13.5294 12.8533L11.3523 10.3986C11.2851 10.3247 11.2481 10.2231 11.2501 10.1178C11.2521 10.0124 11.2929 9.91267 11.3629 9.84205C12.753 8.52816 14.7889 8.52816 16.179 9.84205C16.2489 9.91272 16.2897 10.0125 16.2916 10.1179Z" fill="black"/>
<path fill-rule="evenodd" clip-rule="evenodd" d="M13.7705 3.10404C16.2576 3.10414 18.6496 4.02623 20.4521 5.67971C20.5879 5.80736 20.8048 5.80575 20.9385 5.6761L22.236 4.41263C22.3037 4.34687 22.3414 4.25779 22.3409 4.16511C22.3403 4.07243 22.3015 3.98379 22.233 3.91879C17.502 -0.455922 10.0383 -0.455922 5.30727 3.91879C5.23874 3.98374 5.19986 4.07235 5.19923 4.16504C5.19859 4.25772 5.23627 4.34682 5.30391 4.41263L6.60177 5.6761C6.73537 5.80595 6.95249 5.80756 7.08814 5.67971C8.89088 4.02612 11.2832 3.10403 13.7705 3.10404ZM13.7672 7.32431C15.1245 7.32423 16.4334 7.83597 17.4395 8.7601C17.5756 8.89125 17.7899 8.88841 17.9226 8.75369L19.2099 7.43438C19.2777 7.36518 19.3153 7.2713 19.3143 7.17375C19.3133 7.0762 19.2738 6.98312 19.2047 6.91533C16.1408 4.02448 11.3961 4.02448 8.33227 6.91533C8.26306 6.98312 8.22357 7.07625 8.22266 7.17383C8.22176 7.27141 8.2595 7.36528 8.32744 7.43438L9.61435 8.75369C9.747 8.88841 9.96136 8.89125 10.0974 8.7601C11.1029 7.83658 12.4107 7.32488 13.7672 7.32431ZM16.2916 10.1179C16.2935 10.2232 16.2565 10.3248 16.1892 10.3986L14.0125 12.8533C13.9487 12.9255 13.8617 12.9661 13.7709 12.9661C13.6802 12.9661 13.5932 12.9255 13.5294 12.8533L11.3523 10.3986C11.2851 10.3247 11.2481 10.2231 11.2501 10.1178C11.2521 10.0124 11.2929 9.91267 11.3629 9.84205C12.753 8.52816 14.7889 8.52816 16.179 9.84205C16.2489 9.91272 16.2897 10.0125 16.2916 10.1179Z" stroke="black"/>
</g>
<defs>
<filter id="filter0_d_488_57785" x="0.699219" y="0.137756" width="26.1426" height="21.3283" filterUnits="userSpaceOnUse" color-interpolation-filters="sRGB">
<feFlood flood-opacity="0" result="BackgroundImageFix"/>
<feColorMatrix in="SourceAlpha" type="matrix" values="0 0 0 0 0 0 0 0 0 0 0 0 0 0 0 0 0 0 127 0" result="hardAlpha"/>
<feOffset dy="4"/>
<feGaussianBlur stdDeviation="2"/>
<feComposite in2="hardAlpha" operator="out"/>
<feColorMatrix type="matrix" values="0 0 0 0 0 0 0 0 0 0 0 0 0 0 0 0 0 0 0.25 0"/>
<feBlend mode="normal" in2="BackgroundImageFix" result="effect1_dropShadow_488_57785"/>
<feBlend mode="normal" in="SourceGraphic" in2="effect1_dropShadow_488_57785" result="shape"/>
</filter>
</defs>
</svg>
