<svg width="18" height="13" viewBox="0 0 18 13" fill="none" xmlns="http://www.w3.org/2000/svg">
<path fill-rule="evenodd" clip-rule="evenodd" d="M9.27052 3.10404C11.7576 3.10414 14.1496 4.02623 15.9521 5.67971C16.0879 5.80736 16.3048 5.80575 16.4385 5.6761L17.736 4.41263C17.8037 4.34687 17.8414 4.25779 17.8409 4.16511C17.8403 4.07243 17.8015 3.98379 17.733 3.91879C13.002 -0.455923 5.53829 -0.455923 0.807275 3.91879C0.738743 3.98374 0.699859 4.07235 0.699227 4.16504C0.698595 4.25772 0.736267 4.34682 0.803908 4.41263L2.10177 5.6761C2.23537 5.80595 2.45249 5.80756 2.58814 5.67971C4.39088 4.02612 6.78317 3.10403 9.27052 3.10404ZM9.26717 7.32431C10.6245 7.32423 11.9334 7.83597 12.9395 8.7601C13.0756 8.89125 13.2899 8.88841 13.4226 8.75369L14.7099 7.43438C14.7777 7.36518 14.8153 7.2713 14.8143 7.17375C14.8133 7.0762 14.7738 6.98312 14.7047 6.91533C11.6408 4.02448 6.8961 4.02448 3.83227 6.91533C3.76306 6.98312 3.72357 7.07625 3.72266 7.17383C3.72176 7.27141 3.7595 7.36528 3.82744 7.43438L5.11435 8.75369C5.247 8.88841 5.46136 8.89125 5.59745 8.7601C6.6029 7.83658 7.91074 7.32488 9.26717 7.32431ZM11.7916 10.1179C11.7935 10.2232 11.7565 10.3248 11.6892 10.3986L9.51249 12.8533C9.44868 12.9255 9.36169 12.9661 9.27092 12.9661C9.18015 12.9661 9.09316 12.9255 9.02935 12.8533L6.85232 10.3986C6.78507 10.3247 6.74808 10.2231 6.75007 10.1178C6.75206 10.0124 6.79287 9.91267 6.86286 9.84205C8.25296 8.52816 10.2889 8.52816 11.679 9.84205C11.7489 9.91272 11.7897 10.0125 11.7916 10.1179Z" fill="white"/>
</svg>
